<?xml version="1.0" encoding="utf-8" standalone="no"?>
<!DOCTYPE svg PUBLIC "-//W3C//DTD SVG 1.1//EN"
  "http://www.w3.org/Graphics/SVG/1.1/DTD/svg11.dtd">
<svg xmlns:xlink="http://www.w3.org/1999/xlink" width="739.8pt" height="422.13288pt" viewBox="0 0 739.8 422.13288" xmlns="http://www.w3.org/2000/svg" version="1.1">
 <metadata>
  <rdf:RDF xmlns:dc="http://purl.org/dc/elements/1.1/" xmlns:cc="http://creativecommons.org/ns#" xmlns:rdf="http://www.w3.org/1999/02/22-rdf-syntax-ns#">
   <cc:Work>
    <dc:type rdf:resource="http://purl.org/dc/dcmitype/StillImage"/>
    <dc:date>2026-08-22T10:47:21.843747</dc:date>
    <dc:format>image/svg+xml</dc:format>
    <dc:creator>
     <cc:Agent>
      <dc:title>Matplotlib v3.10.6, https://matplotlib.org/</dc:title>
     </cc:Agent>
    </dc:creator>
   </cc:Work>
  </rdf:RDF>
 </metadata>
 <defs>
  <style type="text/css">*{stroke-linejoin: round; stroke-linecap: butt}</style>
 </defs>
 <g id="figure_1">
  <g id="patch_1">
   <path d="M 0 422.13288 
L 739.8 422.13288 
L 739.8 0 
L 0 0 
z
" style="fill: #ffffff"/>
  </g>
  <g id="axes_1">
   <g id="patch_2">
    <path d="M 112.618015 225.841888 
Q 197.18716 268.12646 280.256304 309.661033 
" clip-path="url(#p5c007a3886)" style="fill: none; stroke: #94a3b8; stroke-width: 1.5; stroke-linecap: round"/>
    <path d="M 275.694726 303.578928 
L 280.256304 309.661033 
L 272.653673 309.661033 
z
" clip-path="url(#p5c007a3886)" style="fill: #94a3b8; stroke: #94a3b8; stroke-width: 1.5; stroke-linecap: round"/>
   </g>
   <g id="patch_3">
    <path d="M 112.618015 224.052444 
Q 197.18716 181.767872 280.256304 140.2333 
" clip-path="url(#p5c007a3886)" style="fill: none; stroke: #94a3b8; stroke-width: 1.5; stroke-linecap: round"/>
    <path d="M 272.653673 140.2333 
L 280.256304 140.2333 
L 275.694726 146.315404 
z
" clip-path="url(#p5c007a3886)" style="fill: #94a3b8; stroke: #94a3b8; stroke-width: 1.5; stroke-linecap: round"/>
   </g>
   <g id="patch_4">
    <path d="M 285.332301 310.409587 
Q 369.901446 268.125015 452.97059 226.590442 
" clip-path="url(#p5c007a3886)" style="fill: none; stroke: #94a3b8; stroke-width: 1.5; stroke-linecap: round"/>
    <path d="M 445.367959 226.590442 
L 452.97059 226.590442 
L 448.409012 232.672547 
z
" clip-path="url(#p5c007a3886)" style="fill: #94a3b8; stroke: #94a3b8; stroke-width: 1.5; stroke-linecap: round"/>
   </g>
   <g id="patch_5">
    <path d="M 285.332301 139.484745 
Q 369.901446 181.769317 452.97059 223.30389 
" clip-path="url(#p5c007a3886)" style="fill: none; stroke: #94a3b8; stroke-width: 1.5; stroke-linecap: round"/>
    <path d="M 448.409012 217.221785 
L 452.97059 223.30389 
L 445.367959 223.30389 
z
" clip-path="url(#p5c007a3886)" style="fill: #94a3b8; stroke: #94a3b8; stroke-width: 1.5; stroke-linecap: round"/>
   </g>
   <g id="patch_6">
    <path d="M 458.25742 224.947166 
Q 542.615449 224.947166 625.296428 224.947166 
" clip-path="url(#p5c007a3886)" style="fill: none; stroke: #94a3b8; stroke-width: 1.5; stroke-linecap: round"/>
    <path d="M 618.496428 221.547166 
L 625.296428 224.947166 
L 618.496428 228.347166 
z
" clip-path="url(#p5c007a3886)" style="fill: #94a3b8; stroke: #94a3b8; stroke-width: 1.5; stroke-linecap: round"/>
   </g>
   <g id="patch_7">
    <path d="M 44.045714 283.094309 
L 177.611429 283.094309 
Q 192.58 283.094309 192.58 268.125738 
L 192.58 181.768595 
Q 192.58 166.800023 177.611429 166.800023 
L 44.045714 166.800023 
Q 29.077143 166.800023 29.077143 181.768595 
L 29.077143 268.125738 
Q 29.077143 283.094309 44.045714 283.094309 
z
" clip-path="url(#p5c007a3886)" style="fill: #0c4a6e; stroke: #38bdf8; stroke-width: 1.6; stroke-linejoin: miter"/>
   </g>
   <g id="patch_8">
    <path d="M 216.76 369.451452 
L 350.325714 369.451452 
Q 365.294286 369.451452 365.294286 354.48288 
L 365.294286 268.125738 
Q 365.294286 253.157166 350.325714 253.157166 
L 216.76 253.157166 
Q 201.791429 253.157166 201.791429 268.125738 
L 201.791429 354.48288 
Q 201.791429 369.451452 216.76 369.451452 
z
" clip-path="url(#p5c007a3886)" style="fill: #164e63; stroke: #38bdf8; stroke-width: 1.6; stroke-linejoin: miter"/>
   </g>
   <g id="patch_9">
    <path d="M 189.125714 196.737166 
L 377.96 196.737166 
Q 392.928571 196.737166 392.928571 181.768595 
L 392.928571 95.411452 
Q 392.928571 80.44288 377.96 80.44288 
L 189.125714 80.44288 
Q 174.157143 80.44288 174.157143 95.411452 
L 174.157143 181.768595 
Q 174.157143 196.737166 189.125714 196.737166 
z
" clip-path="url(#p5c007a3886)" style="fill: #1e3a8a; stroke: #818cf8; stroke-width: 1.6; stroke-linejoin: miter"/>
   </g>
   <g id="patch_10">
    <path d="M 389.474286 283.094309 
L 523.04 283.094309 
Q 538.008571 283.094309 538.008571 268.125738 
L 538.008571 181.768595 
Q 538.008571 166.800023 523.04 166.800023 
L 389.474286 166.800023 
Q 374.505714 166.800023 374.505714 181.768595 
L 374.505714 268.125738 
Q 374.505714 283.094309 389.474286 283.094309 
z
" clip-path="url(#p5c007a3886)" style="fill: #78350f; stroke: #fbbf24; stroke-width: 1.6; stroke-linejoin: miter"/>
   </g>
   <g id="patch_11">
    <path d="M 562.188571 283.094309 
L 695.754286 283.094309 
Q 710.722857 283.094309 710.722857 268.125738 
L 710.722857 181.768595 
Q 710.722857 166.800023 695.754286 166.800023 
L 562.188571 166.800023 
Q 547.22 166.800023 547.22 181.768595 
L 547.22 268.125738 
Q 547.22 283.094309 562.188571 283.094309 
z
" clip-path="url(#p5c007a3886)" style="fill: #134e4a; stroke: #2dd4bf; stroke-width: 1.6; stroke-linejoin: miter"/>
   </g>
   <g id="text_1">
    <!-- Ch3 now -->
    <g style="fill: #0f172a" transform="translate(89.464496 198.694595) scale(0.12 -0.12)">
     <defs>
      <path id="CMSS17-43" d="M 3501 705 
C 3072 416 2874 332 2355 332 
C 1459 332 934 1304 934 2191 
C 934 3137 1472 4070 2381 4070 
C 2790 4070 3059 3954 3386 3748 
L 3475 4255 
C 3168 4409 2778 4480 2387 4480 
C 1158 4480 397 3343 397 2191 
C 397 924 1299 -77 2323 -77 
C 2874 -77 3066 -32 3539 268 
L 3501 705 
z
" transform="scale(0.015625)"/>
      <path id="CMSS17-68" d="M 2618 1878 
C 2618 2283 2522 2816 1798 2816 
C 1395 2816 1133 2617 947 2399 
L 947 4416 
L 474 4416 
L 474 0 
L 960 0 
L 960 1556 
C 960 1962 1114 2425 1549 2425 
C 2112 2425 2131 2045 2131 1826 
L 2131 0 
L 2618 0 
L 2618 1878 
z
" transform="scale(0.015625)"/>
      <path id="CMSS17-33" d="M 1005 2060 
L 1440 2060 
C 2042 2060 2214 1532 2214 1164 
C 2214 662 1933 268 1472 268 
C 1114 268 608 449 320 926 
C 275 700 275 687 250 533 
C 550 89 1037 -128 1485 -128 
C 2214 -128 2752 481 2752 1158 
C 2752 1667 2400 2092 1920 2252 
C 2304 2463 2586 2860 2586 3321 
C 2586 3859 2093 4288 1491 4288 
C 941 4288 512 3948 333 3583 
C 378 3519 493 3334 550 3238 
C 691 3615 1056 3897 1485 3897 
C 1843 3897 2080 3660 2080 3321 
C 2080 2969 1856 2585 1478 2496 
C 1453 2496 1056 2457 1005 2451 
L 1005 2060 
z
" transform="scale(0.015625)"/>
      <path id="CMSS17-6e" d="M 2618 1878 
C 2618 2283 2522 2816 1798 2816 
C 1389 2816 1120 2604 941 2386 
L 941 2783 
L 474 2783 
L 474 0 
L 960 0 
L 960 1556 
C 960 1962 1114 2425 1549 2425 
C 2112 2425 2131 2045 2131 1826 
L 2131 0 
L 2618 0 
L 2618 1878 
z
" transform="scale(0.015625)"/>
      <path id="CMSS17-6f" d="M 2829 1356 
C 2829 2175 2221 2816 1504 2816 
C 768 2816 173 2156 173 1356 
C 173 544 787 -64 1498 -64 
C 2227 -64 2829 563 2829 1356 
z
M 1504 339 
C 1050 339 659 710 659 1407 
C 659 2150 1114 2425 1498 2425 
C 1914 2425 2342 2124 2342 1407 
C 2342 684 1926 339 1504 339 
z
" transform="scale(0.015625)"/>
      <path id="CMSS17-77" d="M 4013 2752 
L 3526 2752 
L 3187 1600 
C 3117 1356 2918 684 2893 371 
L 2886 371 
C 2874 563 2765 1024 2586 1632 
L 2259 2752 
L 1818 2752 
L 1498 1657 
C 1338 1100 1216 627 1203 371 
L 1197 371 
C 1171 748 909 1632 870 1772 
L 582 2752 
L 83 2752 
L 915 0 
L 1402 0 
C 1734 1100 1990 1952 2010 2380 
C 2022 2169 2131 1715 2195 1491 
L 2618 0 
L 3181 0 
L 4013 2752 
z
" transform="scale(0.015625)"/>
     </defs>
     <use xlink:href="#CMSS17-43" transform="scale(0.996264)"/>
     <use xlink:href="#CMSS17-68" transform="translate(59.855772 0) scale(0.996264)"/>
     <use xlink:href="#CMSS17-33" transform="translate(108.060715 0) scale(0.996264)"/>
     <use xlink:href="#CMSS17-6e" transform="translate(186.133451 0) scale(0.996264)"/>
     <use xlink:href="#CMSS17-6f" transform="translate(234.338394 0) scale(0.996264)"/>
     <use xlink:href="#CMSS17-77" transform="translate(278.579564 0) scale(0.996264)"/>
    </g>
   </g>
   <g id="text_2">
    <!-- $\hat y=\mathrm{sign}(w^\top x+w_0)$ -->
    <g style="fill: #1e293b" transform="translate(47.809377 244.636595) scale(0.15 -0.15)">
     <defs>
      <path id="CMR17-5e" d="M 1466 4416 
L 678 3532 
L 755 3456 
L 1466 4159 
L 2176 3456 
L 2253 3532 
L 1466 4416 
z
" transform="scale(0.015625)"/>
      <path id="CMMI12-79" d="M 1683 -673 
C 1510 -921 1261 -1152 947 -1152 
C 870 -1152 563 -1139 467 -826 
C 486 -833 518 -833 531 -833 
C 723 -833 851 -666 851 -519 
C 851 -372 730 -320 634 -320 
C 531 -320 307 -397 307 -711 
C 307 -1050 582 -1280 947 -1280 
C 1587 -1280 2234 -673 2413 -7 
L 3040 2483 
C 3046 2515 3059 2553 3059 2591 
C 3059 2687 2982 2752 2886 2752 
C 2829 2752 2694 2726 2643 2534 
L 2170 657 
C 2138 542 2138 530 2086 459 
C 1958 281 1747 64 1440 64 
C 1082 64 1050 415 1050 587 
C 1050 951 1222 1443 1395 1902 
C 1466 2087 1504 2177 1504 2305 
C 1504 2573 1312 2816 998 2816 
C 410 2816 173 1890 173 1838 
C 173 1813 198 1781 243 1781 
C 301 1781 307 1807 333 1896 
C 486 2432 730 2687 979 2687 
C 1037 2687 1146 2687 1146 2477 
C 1146 2311 1075 2126 979 1883 
C 666 1047 666 836 666 683 
C 666 76 1101 -64 1421 -64 
C 1606 -64 1837 -7 2061 230 
L 2067 223 
C 1971 -141 1907 -359 1683 -673 
z
" transform="scale(0.015625)"/>
      <path id="CMR17-3d" d="M 4115 2048 
C 4211 2048 4307 2048 4307 2156 
C 4307 2272 4198 2272 4090 2272 
L 512 2272 
C 403 2272 294 2272 294 2156 
C 294 2048 390 2048 486 2048 
L 4115 2048 
z
M 4090 927 
C 4198 927 4307 927 4307 1043 
C 4307 1152 4211 1152 4115 1152 
L 486 1152 
C 390 1152 294 1152 294 1043 
C 294 927 403 927 512 927 
L 4090 927 
z
" transform="scale(0.015625)"/>
      <path id="CMR17-73" d="M 1978 2688 
C 1978 2803 1971 2809 1933 2809 
C 1907 2809 1901 2803 1824 2707 
C 1805 2681 1747 2617 1728 2592 
C 1523 2809 1235 2816 1126 2816 
C 416 2816 160 2444 160 2073 
C 160 1497 813 1363 998 1324 
C 1402 1241 1542 1216 1677 1100 
C 1760 1024 1901 883 1901 652 
C 1901 384 1747 38 1158 38 
C 602 38 403 460 288 1024 
C 269 1113 269 1120 218 1120 
C 166 1120 160 1113 160 985 
L 160 64 
C 160 -52 166 -58 205 -58 
C 237 -58 243 -52 275 0 
C 314 57 410 211 448 275 
C 576 102 800 -64 1158 -64 
C 1792 -64 2131 281 2131 780 
C 2131 1107 1958 1280 1875 1356 
C 1683 1555 1459 1600 1190 1651 
C 838 1728 390 1817 390 2208 
C 390 2374 480 2726 1126 2726 
C 1811 2726 1850 2086 1862 1881 
C 1869 1849 1901 1843 1920 1843 
C 1978 1843 1978 1862 1978 1971 
L 1978 2688 
z
" transform="scale(0.015625)"/>
      <path id="CMR17-69" d="M 992 3961 
C 992 4102 877 4224 730 4224 
C 589 4224 467 4108 467 3961 
C 467 3820 582 3699 730 3699 
C 870 3699 992 3814 992 3961 
z
M 243 2745 
L 243 2579 
C 602 2579 653 2540 653 2231 
L 653 443 
C 653 198 627 166 218 166 
L 218 0 
C 371 12 646 12 806 12 
C 960 12 1222 12 1370 0 
L 1370 166 
C 992 166 979 205 979 436 
L 979 2816 
L 243 2745 
z
" transform="scale(0.015625)"/>
      <path id="CMR17-67" d="M 710 1165 
C 832 1068 1043 960 1299 960 
C 1805 960 2240 1359 2240 1895 
C 2240 2063 2189 2321 1997 2521 
C 2176 2713 2438 2777 2586 2777 
C 2611 2777 2650 2777 2682 2758 
C 2656 2751 2598 2726 2598 2623 
C 2598 2540 2656 2483 2739 2483 
C 2835 2483 2886 2547 2886 2630 
C 2886 2751 2790 2880 2586 2880 
C 2330 2880 2106 2758 1926 2591 
C 1734 2764 1504 2828 1299 2828 
C 794 2828 358 2431 358 1895 
C 358 1527 570 1294 634 1230 
C 442 1004 442 742 442 710 
C 442 544 506 300 723 166 
C 390 82 128 -184 128 -517 
C 128 -996 736 -1344 1466 -1344 
C 2170 -1344 2803 -1009 2803 -510 
C 2803 384 1856 384 1363 384 
C 1216 384 954 384 922 390 
C 723 422 589 601 589 825 
C 589 883 589 1024 710 1165 
z
M 1299 1068 
C 736 1068 736 1766 736 1895 
C 736 2024 736 2719 1299 2719 
C 1862 2719 1862 2024 1862 1895 
C 1862 1766 1862 1068 1299 1068 
z
M 1466 -1236 
C 826 -1236 384 -883 384 -517 
C 384 -311 493 -118 634 -11 
C 794 102 858 102 1293 102 
C 1818 102 2547 102 2547 -517 
C 2547 -883 2106 -1236 1466 -1236 
z
" transform="scale(0.015625)"/>
      <path id="CMR17-6e" d="M 2656 1954 
C 2656 2282 2592 2816 1837 2816 
C 1331 2816 1069 2424 973 2166 
L 966 2166 
L 966 2816 
L 211 2745 
L 211 2578 
C 589 2578 646 2540 646 2231 
L 646 443 
C 646 198 621 166 211 166 
L 211 0 
C 365 12 646 12 813 12 
C 979 12 1267 12 1421 0 
L 1421 166 
C 1011 166 986 192 986 443 
L 986 1678 
C 986 2269 1344 2713 1792 2713 
C 2266 2713 2317 2289 2317 1980 
L 2317 443 
C 2317 198 2291 166 1882 166 
L 1882 0 
C 2035 12 2317 12 2483 12 
C 2650 12 2938 12 3091 0 
L 3091 166 
C 2682 166 2656 192 2656 443 
L 2656 1954 
z
" transform="scale(0.015625)"/>
      <path id="CMR17-28" d="M 1958 -1562 
C 1958 -1556 1958 -1543 1939 -1524 
C 1645 -1223 858 -403 858 1596 
C 858 3595 1632 4408 1946 4729 
C 1946 4735 1958 4748 1958 4767 
C 1958 4787 1939 4800 1914 4800 
C 1843 4800 1299 4325 986 3620 
C 666 2909 576 2218 576 1603 
C 576 1141 621 360 1005 -467 
C 1312 -1133 1837 -1600 1914 -1600 
C 1946 -1600 1958 -1588 1958 -1562 
z
" transform="scale(0.015625)"/>
      <path id="CMMI12-77" d="M 2202 389 
C 2342 6 2739 -64 2982 -64 
C 3469 -64 3757 357 3936 798 
C 4083 1168 4320 2011 4320 2388 
C 4320 2777 4122 2816 4064 2816 
C 3910 2816 3770 2662 3770 2534 
C 3770 2458 3814 2413 3846 2388 
C 3904 2330 4070 2158 4070 1826 
C 4070 1609 3891 1008 3757 708 
C 3578 319 3341 64 3008 64 
C 2650 64 2534 332 2534 625 
C 2534 810 2592 1034 2618 1142 
L 2886 2215 
C 2918 2343 2976 2566 2976 2591 
C 2976 2687 2899 2752 2803 2752 
C 2618 2752 2573 2591 2534 2438 
C 2470 2189 2202 1110 2176 970 
C 2150 861 2150 791 2150 651 
C 2150 498 1946 255 1939 242 
C 1869 172 1766 64 1568 64 
C 1062 64 1062 542 1062 651 
C 1062 855 1107 1136 1395 1896 
C 1472 2094 1504 2177 1504 2305 
C 1504 2573 1312 2816 998 2816 
C 410 2816 173 1890 173 1838 
C 173 1813 198 1781 243 1781 
C 301 1781 307 1807 333 1896 
C 493 2458 742 2687 979 2687 
C 1043 2687 1146 2681 1146 2477 
C 1146 2445 1146 2311 1037 2030 
C 736 1232 672 970 672 728 
C 672 57 1222 -64 1549 -64 
C 1658 -64 1946 -64 2202 389 
z
" transform="scale(0.015625)"/>
      <path id="CMSY10-3e" d="M 2618 4044 
L 4403 4044 
C 4512 4044 4627 4044 4627 4172 
C 4627 4300 4512 4300 4403 4300 
L 582 4300 
C 486 4300 352 4300 352 4172 
C 352 4044 486 4044 582 4044 
L 2362 4044 
L 2362 231 
C 2362 134 2362 0 2490 0 
C 2618 0 2618 115 2618 231 
L 2618 4044 
z
" transform="scale(0.015625)"/>
      <path id="CMMI12-78" d="M 3034 2624 
C 2829 2585 2752 2431 2752 2310 
C 2752 2156 2874 2105 2963 2105 
C 3155 2105 3290 2271 3290 2444 
C 3290 2694 2982 2816 2714 2816 
C 2323 2816 2106 2451 2048 2329 
C 1901 2790 1504 2816 1389 2816 
C 736 2816 390 1993 390 1849 
C 390 1823 416 1790 461 1790 
C 512 1790 525 1829 538 1855 
C 755 2572 1184 2687 1370 2687 
C 1658 2687 1715 2438 1715 2284 
C 1715 2143 1677 1993 1600 1678 
L 1382 778 
C 1286 390 1101 64 762 64 
C 730 64 570 64 435 126 
C 666 166 717 358 717 435 
C 717 563 621 640 499 640 
C 346 640 179 505 179 300 
C 179 57 480 -64 755 -64 
C 1062 -64 1280 153 1414 415 
C 1517 64 1837 -64 2074 -64 
C 2726 -64 3072 751 3072 896 
C 3072 929 3046 955 3008 955 
C 2950 955 2944 922 2925 870 
C 2752 300 2381 64 2093 64 
C 1869 64 1747 204 1747 467 
C 1747 607 1773 712 1875 1146 
L 2099 2039 
C 2195 2425 2413 2687 2707 2687 
C 2720 2687 2899 2687 3034 2624 
z
" transform="scale(0.015625)"/>
      <path id="CMR17-2b" d="M 2413 1472 
L 4109 1472 
C 4198 1472 4307 1472 4307 1580 
C 4307 1696 4205 1696 4109 1696 
L 2413 1696 
L 2413 3385 
C 2413 3475 2413 3584 2304 3584 
C 2189 3584 2189 3481 2189 3385 
L 2189 1696 
L 493 1696 
C 403 1696 294 1696 294 1587 
C 294 1472 397 1472 493 1472 
L 2189 1472 
L 2189 -194 
C 2189 -282 2189 -391 2298 -391 
C 2413 -391 2413 -289 2413 -194 
L 2413 1472 
z
" transform="scale(0.015625)"/>
      <path id="CMR17-30" d="M 2688 2038 
C 2688 2430 2682 3099 2413 3613 
C 2176 4063 1798 4224 1466 4224 
C 1158 4224 768 4082 525 3620 
C 269 3137 243 2539 243 2038 
C 243 1671 250 1112 448 623 
C 723 -39 1216 -128 1466 -128 
C 1760 -128 2208 -7 2470 604 
C 2662 1048 2688 1568 2688 2038 
z
M 1466 -26 
C 1056 -26 813 328 723 816 
C 653 1196 653 1749 653 2109 
C 653 2604 653 3015 736 3407 
C 858 3954 1216 4121 1466 4121 
C 1728 4121 2067 3947 2189 3420 
C 2272 3054 2278 2623 2278 2109 
C 2278 1691 2278 1176 2202 797 
C 2067 96 1690 -26 1466 -26 
z
" transform="scale(0.015625)"/>
      <path id="CMR17-29" d="M 1683 1596 
C 1683 2057 1638 2839 1254 3665 
C 947 4332 422 4800 346 4800 
C 326 4800 301 4793 301 4761 
C 301 4748 307 4742 314 4729 
C 621 4408 1402 3595 1402 1603 
C 1402 -396 627 -1210 314 -1530 
C 307 -1543 301 -1549 301 -1562 
C 301 -1594 326 -1600 346 -1600 
C 416 -1600 960 -1127 1274 -422 
C 1594 289 1683 981 1683 1596 
z
" transform="scale(0.015625)"/>
     </defs>
     <use xlink:href="#CMR17-5e" transform="translate(8.143595 0.006461) scale(0.996264)"/>
     <use xlink:href="#CMMI12-79" transform="scale(0.996264)"/>
     <use xlink:href="#CMR17-3d" transform="translate(78.812789 0) scale(0.996264)"/>
     <use xlink:href="#CMR17-73" transform="translate(178.201587 0) scale(0.996264)"/>
     <use xlink:href="#CMR17-69" transform="translate(214.002924 0) scale(0.996264)"/>
     <use xlink:href="#CMR17-67" transform="translate(238.873983 0) scale(0.996264)"/>
     <use xlink:href="#CMR17-6e" transform="translate(284.56446 0) scale(0.996264)"/>
     <use xlink:href="#CMR17-28" transform="translate(335.45983 0) scale(0.996264)"/>
     <use xlink:href="#CMMI12-77" transform="translate(370.740597 0) scale(0.996264)"/>
     <use xlink:href="#CMSY10-3e" transform="translate(443.153512 36.153639) scale(0.697382)"/>
     <use xlink:href="#CMMI12-78" transform="translate(497.892638 0) scale(0.996264)"/>
     <use xlink:href="#CMR17-2b" transform="translate(575.465904 0) scale(0.996264)"/>
     <use xlink:href="#CMMI12-77" transform="translate(669.3199 0) scale(0.996264)"/>
     <use xlink:href="#CMR17-30" transform="translate(739.051889 -14.943915) scale(0.697382)"/>
     <use xlink:href="#CMR17-29" transform="translate(771.533203 0) scale(0.996264)"/>
    </g>
   </g>
   <g id="text_3">
    <!-- Ch4 MLP+BP -->
    <g style="fill: #0f172a" transform="translate(247.802319 285.051738) scale(0.12 -0.12)">
     <defs>
      <path id="CMSS17-34" d="M 2253 1088 
L 2835 1088 
L 2835 1478 
L 2253 1478 
L 2253 4224 
L 1690 4224 
L 166 1478 
L 166 1088 
L 1747 1088 
L 1747 0 
L 2253 0 
L 2253 1088 
z
M 659 1478 
C 1030 2139 1766 3474 1766 3927 
L 1766 1478 
L 659 1478 
z
" transform="scale(0.015625)"/>
      <path id="CMSS17-4d" d="M 3194 2373 
L 2886 1476 
C 2835 1311 2662 795 2624 592 
L 2618 592 
C 2598 719 2560 853 2458 1177 
C 2400 1368 2336 1565 2272 1743 
L 1325 4416 
L 576 4416 
L 576 0 
L 1075 0 
L 1075 3899 
L 1082 3899 
C 1082 3893 1139 3613 1530 2500 
L 2374 102 
L 2848 102 
L 3610 2233 
C 3661 2379 3821 2843 3891 3066 
C 3955 3257 4115 3728 4154 3912 
L 4160 3912 
L 4160 0 
L 4666 0 
L 4666 4416 
L 3923 4416 
L 3194 2373 
z
" transform="scale(0.015625)"/>
      <path id="CMSS17-4c" d="M 1670 416 
C 1594 416 1517 409 1440 409 
L 1101 409 
L 1101 4416 
L 563 4416 
L 563 0 
L 3002 0 
L 3002 416 
L 1670 416 
z
" transform="scale(0.015625)"/>
      <path id="CMSS17-50" d="M 2106 1856 
C 2874 1856 3501 2447 3501 3139 
C 3501 3818 2899 4416 2067 4416 
L 570 4416 
L 570 0 
L 1107 0 
L 1107 1856 
L 2106 1856 
z
M 1926 4057 
C 2669 4057 2995 3598 2995 3139 
C 2995 2711 2694 2227 1926 2227 
L 1094 2227 
L 1094 4057 
L 1926 4057 
z
" transform="scale(0.015625)"/>
      <path id="CMSS17-2b" d="M 2451 1472 
L 4141 1472 
C 4230 1472 4339 1472 4339 1580 
C 4339 1696 4237 1696 4141 1696 
L 2451 1696 
L 2451 3385 
C 2451 3475 2451 3584 2342 3584 
C 2227 3584 2227 3481 2227 3385 
L 2227 1696 
L 531 1696 
C 442 1696 333 1696 333 1587 
C 333 1472 435 1472 531 1472 
L 2227 1472 
L 2227 -194 
C 2227 -282 2227 -391 2336 -391 
C 2451 -391 2451 -289 2451 -194 
L 2451 1472 
z
" transform="scale(0.015625)"/>
      <path id="CMSS17-42" d="M 570 4416 
L 570 0 
L 2163 0 
C 3034 0 3667 575 3667 1200 
C 3667 1684 3251 2175 2502 2316 
C 3334 2559 3501 3039 3501 3311 
C 3501 3880 2874 4416 1997 4416 
L 570 4416 
z
M 1088 2496 
L 1088 4057 
L 1824 4057 
C 2483 4057 3002 3722 3002 3305 
C 3002 2925 2592 2496 1766 2496 
L 1088 2496 
z
M 1088 358 
L 1088 2105 
L 1939 2105 
C 2630 2105 3162 1678 3162 1206 
C 3162 772 2694 358 1984 358 
L 1088 358 
z
" transform="scale(0.015625)"/>
     </defs>
     <use xlink:href="#CMSS17-43" transform="scale(0.996264)"/>
     <use xlink:href="#CMSS17-68" transform="translate(59.855772 0) scale(0.996264)"/>
     <use xlink:href="#CMSS17-34" transform="translate(108.060715 0) scale(0.996264)"/>
     <use xlink:href="#CMSS17-4d" transform="translate(186.133451 0) scale(0.996264)"/>
     <use xlink:href="#CMSS17-4c" transform="translate(267.809481 0) scale(0.996264)"/>
     <use xlink:href="#CMSS17-50" transform="translate(318.496586 0) scale(0.996264)"/>
     <use xlink:href="#CMSS17-2b" transform="translate(378.232173 0) scale(0.996264)"/>
     <use xlink:href="#CMSS17-42" transform="translate(451.100107 0) scale(0.996264)"/>
     <use xlink:href="#CMSS17-50" transform="translate(513.438148 0) scale(0.996264)"/>
    </g>
   </g>
   <g id="text_4">
    <!-- $y=\sigma(w^\top x)$ -->
    <g style="fill: #1e293b" transform="translate(245.84341 330.993738) scale(0.15 -0.15)">
     <defs>
      <path id="CMMI12-1b" d="M 3251 2406 
C 3334 2406 3546 2406 3546 2611 
C 3546 2752 3424 2752 3309 2752 
L 1894 2752 
C 934 2752 243 1685 243 932 
C 243 389 595 -64 1171 -64 
C 1926 -64 2752 746 2752 1704 
C 2752 1953 2694 2195 2541 2406 
L 3251 2406 
z
M 1178 64 
C 851 64 614 312 614 753 
C 614 1136 845 2406 1786 2406 
C 2061 2406 2368 2272 2368 1780 
C 2368 1557 2266 1021 2042 651 
C 1811 274 1466 64 1178 64 
z
" transform="scale(0.015625)"/>
     </defs>
     <use xlink:href="#CMMI12-79" transform="scale(0.996264)"/>
     <use xlink:href="#CMR17-3d" transform="translate(78.812789 0) scale(0.996264)"/>
     <use xlink:href="#CMMI12-1b" transform="translate(178.201587 0) scale(0.996264)"/>
     <use xlink:href="#CMR17-28" transform="translate(237.22164 0) scale(0.996264)"/>
     <use xlink:href="#CMMI12-77" transform="translate(272.502408 0) scale(0.996264)"/>
     <use xlink:href="#CMSY10-3e" transform="translate(344.915323 36.153639) scale(0.697382)"/>
     <use xlink:href="#CMMI12-78" transform="translate(399.654448 0) scale(0.996264)"/>
     <use xlink:href="#CMR17-29" transform="translate(455.088508 0) scale(0.996264)"/>
    </g>
   </g>
   <g id="text_5">
    <!-- Ch5 kernel/deep -->
    <g style="fill: #0f172a" transform="translate(243.540568 112.337452) scale(0.12 -0.12)">
     <defs>
      <path id="CMSS17-35" d="M 934 3814 
L 2502 3814 
L 2502 4224 
L 467 4224 
L 467 1830 
L 896 1830 
C 1011 2103 1248 2304 1555 2304 
C 1843 2304 2163 2044 2163 1299 
C 2163 502 1709 268 1376 268 
C 966 268 589 521 422 871 
L 218 508 
C 512 51 992 -128 1376 -128 
C 2118 -128 2701 508 2701 1286 
C 2701 2083 2182 2694 1562 2694 
C 1338 2694 1120 2617 934 2464 
L 934 3814 
z
" transform="scale(0.015625)"/>
      <path id="CMSS17-6b" d="M 1696 1686 
L 2688 2735 
L 2074 2735 
L 954 1552 
L 954 4416 
L 480 4416 
L 480 0 
L 947 0 
L 947 891 
L 1376 1342 
L 2278 0 
L 2822 0 
L 1696 1686 
z
" transform="scale(0.015625)"/>
      <path id="CMSS17-65" d="M 2502 1375 
C 2502 1587 2490 2001 2285 2347 
C 2061 2713 1696 2816 1421 2816 
C 755 2816 192 2184 192 1363 
C 192 579 774 -64 1510 -64 
C 1798 -64 2150 19 2470 249 
C 2470 275 2458 414 2451 421 
C 2451 433 2432 629 2432 655 
C 2125 408 1773 326 1517 326 
C 1107 326 666 667 646 1375 
L 2502 1375 
z
M 698 1728 
C 781 2086 1062 2425 1421 2425 
C 1517 2425 1965 2412 2080 1728 
L 698 1728 
z
" transform="scale(0.015625)"/>
      <path id="CMSS17-72" d="M 954 1369 
C 954 1974 1395 2379 1958 2392 
L 1958 2816 
C 1549 2809 1165 2604 934 2270 
L 934 2783 
L 480 2783 
L 480 0 
L 954 0 
L 954 1369 
z
" transform="scale(0.015625)"/>
      <path id="CMSS17-6c" d="M 947 4416 
L 474 4416 
L 474 0 
L 947 0 
L 947 4416 
z
" transform="scale(0.015625)"/>
      <path id="CMSS17-2f" d="M 2637 4575 
C 2669 4658 2669 4671 2669 4684 
C 2669 4761 2611 4800 2560 4800 
C 2483 4800 2458 4748 2432 4671 
L 365 -1376 
C 333 -1460 333 -1472 333 -1485 
C 333 -1562 390 -1600 442 -1600 
C 518 -1600 544 -1549 570 -1472 
L 2637 4575 
z
" transform="scale(0.015625)"/>
      <path id="CMSS17-64" d="M 2611 4416 
L 2138 4416 
L 2138 2495 
C 1939 2662 1613 2816 1254 2816 
C 672 2816 211 2179 211 1375 
C 211 572 666 -64 1235 -64 
C 1677 -64 1971 172 2125 307 
L 2125 -13 
L 2611 -13 
L 2611 4416 
z
M 2125 851 
C 2125 760 2125 663 1926 488 
C 1798 378 1645 326 1498 326 
C 1152 326 698 585 698 1369 
C 698 2185 1210 2425 1562 2425 
C 1798 2425 1990 2308 2125 2114 
L 2125 851 
z
" transform="scale(0.015625)"/>
      <path id="CMSS17-70" d="M 966 275 
C 1178 70 1466 -64 1773 -64 
C 2368 -64 2880 553 2880 1382 
C 2880 2147 2496 2816 1946 2816 
C 1626 2816 1242 2700 954 2470 
L 954 2764 
L 480 2764 
L 480 -1280 
L 966 -1280 
L 966 275 
z
M 966 2088 
C 1018 2166 1235 2412 1587 2412 
C 2035 2412 2394 1946 2394 1382 
C 2394 741 1958 326 1530 326 
C 1402 326 1267 358 1139 468 
C 966 624 966 721 966 812 
L 966 2088 
z
" transform="scale(0.015625)"/>
     </defs>
     <use xlink:href="#CMSS17-43" transform="scale(0.996264)"/>
     <use xlink:href="#CMSS17-68" transform="translate(59.855772 0) scale(0.996264)"/>
     <use xlink:href="#CMSS17-35" transform="translate(108.060715 0) scale(0.996264)"/>
     <use xlink:href="#CMSS17-6b" transform="translate(186.133451 0) scale(0.996264)"/>
     <use xlink:href="#CMSS17-65" transform="translate(229.133486 0) scale(0.996264)"/>
     <use xlink:href="#CMSS17-72" transform="translate(270.772308 0) scale(0.996264)"/>
     <use xlink:href="#CMSS17-6e" transform="translate(302.682081 0) scale(0.996264)"/>
     <use xlink:href="#CMSS17-65" transform="translate(350.887024 0) scale(0.996264)"/>
     <use xlink:href="#CMSS17-6c" transform="translate(392.525846 0) scale(0.996264)"/>
     <use xlink:href="#CMSS17-2f" transform="translate(414.706569 0) scale(0.996264)"/>
     <use xlink:href="#CMSS17-64" transform="translate(461.550193 0) scale(0.996264)"/>
     <use xlink:href="#CMSS17-65" transform="translate(509.755136 0) scale(0.996264)"/>
     <use xlink:href="#CMSS17-65" transform="translate(551.393958 0) scale(0.996264)"/>
     <use xlink:href="#CMSS17-70" transform="translate(593.03278 0) scale(0.996264)"/>
    </g>
   </g>
   <g id="text_6">
    <!-- $K(x_1,x_2)$ -->
    <g style="fill: #1e293b" transform="translate(253.770182 158.279452) scale(0.15 -0.15)">
     <defs>
      <path id="CMMI12-4b" d="M 3200 2574 
C 3194 2593 3168 2644 3168 2663 
C 3168 2669 3174 2675 3283 2758 
L 3904 3242 
C 4762 3905 5043 4128 5485 4166 
C 5530 4172 5594 4172 5594 4281 
C 5594 4319 5574 4352 5523 4352 
C 5453 4352 5376 4339 5306 4339 
L 5062 4339 
C 4864 4339 4653 4352 4461 4352 
C 4416 4352 4339 4352 4339 4236 
C 4339 4172 4384 4166 4422 4166 
C 4493 4159 4576 4134 4576 4045 
C 4576 3917 4384 3765 4333 3726 
L 1824 1784 
L 2355 3886 
C 2413 4102 2426 4166 2880 4166 
C 3002 4166 3059 4166 3059 4287 
C 3059 4352 2995 4352 2963 4352 
C 2848 4352 2714 4339 2592 4339 
L 1837 4339 
C 1722 4339 1581 4352 1466 4352 
C 1414 4352 1344 4352 1344 4230 
C 1344 4166 1402 4166 1498 4166 
C 1888 4166 1888 4115 1888 4045 
C 1888 4032 1888 3994 1862 3898 
L 998 472 
C 941 249 928 185 480 185 
C 358 185 294 185 294 70 
C 294 0 352 0 390 0 
C 512 0 640 12 762 12 
L 1510 12 
C 1632 12 1766 0 1888 0 
C 1939 0 2010 0 2010 121 
C 2010 185 1952 185 1856 185 
C 1466 185 1466 236 1466 300 
C 1466 344 1504 504 1530 605 
L 1779 1593 
L 2752 2351 
C 2938 1943 3277 1128 3539 504 
C 3558 465 3571 427 3571 383 
C 3571 191 3315 185 3258 185 
C 3200 185 3136 185 3136 64 
C 3136 0 3206 0 3226 0 
C 3450 0 3686 12 3910 12 
L 4218 12 
C 4314 12 4422 0 4518 0 
C 4557 0 4627 0 4627 121 
C 4627 185 4570 185 4506 185 
C 4269 191 4186 242 4090 472 
L 3200 2574 
z
" transform="scale(0.015625)"/>
      <path id="CMR17-31" d="M 1702 4083 
C 1702 4217 1696 4224 1606 4224 
C 1357 3927 979 3833 621 3820 
C 602 3820 570 3820 563 3808 
C 557 3795 557 3782 557 3648 
C 755 3648 1088 3686 1344 3839 
L 1344 467 
C 1344 243 1331 166 781 166 
L 589 166 
L 589 0 
C 896 6 1216 12 1523 12 
C 1830 12 2150 6 2458 0 
L 2458 166 
L 2266 166 
C 1715 166 1702 236 1702 467 
L 1702 4083 
z
" transform="scale(0.015625)"/>
      <path id="CMMI12-3b" d="M 1248 -26 
C 1248 345 1126 620 864 620 
C 659 620 557 454 557 313 
C 557 172 653 0 870 0 
C 954 0 1024 25 1082 83 
C 1094 96 1101 96 1107 96 
C 1120 96 1120 6 1120 -26 
C 1120 -233 1082 -642 710 -1051 
C 640 -1127 640 -1140 640 -1152 
C 640 -1184 672 -1216 704 -1216 
C 755 -1216 1248 -749 1248 -26 
z
" transform="scale(0.015625)"/>
      <path id="CMR17-32" d="M 2669 990 
L 2554 990 
C 2490 537 2438 460 2413 422 
C 2381 371 1920 371 1830 371 
L 602 371 
C 832 620 1280 1073 1824 1596 
C 2214 1966 2669 2400 2669 3033 
C 2669 3788 2067 4224 1395 4224 
C 691 4224 262 3603 262 3027 
C 262 2777 448 2745 525 2745 
C 589 2745 781 2783 781 3007 
C 781 3206 614 3264 525 3264 
C 486 3264 448 3257 422 3244 
C 544 3788 915 4057 1306 4057 
C 1862 4057 2227 3616 2227 3033 
C 2227 2477 1901 1998 1536 1583 
L 262 147 
L 262 0 
L 2515 0 
L 2669 990 
z
" transform="scale(0.015625)"/>
     </defs>
     <use xlink:href="#CMMI12-4b" transform="scale(0.996264)"/>
     <use xlink:href="#CMR17-28" transform="translate(90.147421 0) scale(0.996264)"/>
     <use xlink:href="#CMMI12-78" transform="translate(125.428189 0) scale(0.996264)"/>
     <use xlink:href="#CMR17-31" transform="translate(180.862248 -14.943915) scale(0.697382)"/>
     <use xlink:href="#CMMI12-3b" transform="translate(213.343562 0) scale(0.996264)"/>
     <use xlink:href="#CMMI12-78" transform="translate(257.045144 0) scale(0.996264)"/>
     <use xlink:href="#CMR17-32" transform="translate(312.479204 -14.943915) scale(0.697382)"/>
     <use xlink:href="#CMR17-29" transform="translate(344.960518 0) scale(0.996264)"/>
    </g>
   </g>
   <g id="text_7">
    <!-- Industry -->
    <g style="fill: #0f172a" transform="translate(436.634454 198.694595) scale(0.12 -0.12)">
     <defs>
      <path id="CMSS17-49" d="M 1094 4416 
L 557 4416 
L 557 0 
L 1094 0 
L 1094 4416 
z
" transform="scale(0.015625)"/>
      <path id="CMSS17-75" d="M 2618 2752 
L 2131 2752 
L 2131 976 
C 2131 500 1786 307 1421 307 
C 998 307 960 448 960 712 
L 960 2752 
L 474 2752 
L 474 680 
C 474 179 646 -64 1088 -64 
C 1306 -64 1798 -13 2144 307 
L 2144 -13 
L 2618 -13 
L 2618 2752 
z
" transform="scale(0.015625)"/>
      <path id="CMSS17-73" d="M 2061 2623 
C 1683 2803 1389 2816 1197 2816 
C 742 2816 198 2655 198 2009 
C 198 1363 902 1222 1094 1183 
C 1389 1126 1715 1062 1715 742 
C 1715 339 1254 339 1171 339 
C 915 339 563 409 243 639 
L 166 211 
C 531 0 883 -64 1178 -64 
C 1965 -64 2163 416 2163 780 
C 2163 1094 1984 1305 1862 1401 
C 1651 1567 1574 1587 1050 1695 
C 960 1708 646 1779 646 2067 
C 646 2431 1050 2431 1139 2431 
C 1555 2431 1811 2303 1984 2207 
L 2061 2623 
z
" transform="scale(0.015625)"/>
      <path id="CMSS17-74" d="M 1069 2380 
L 1901 2380 
L 1901 2752 
L 1069 2752 
L 1069 3520 
L 614 3520 
L 614 2752 
L 109 2752 
L 109 2380 
L 602 2380 
L 602 751 
C 602 384 685 -64 1107 -64 
C 1427 -64 1722 25 2003 172 
L 1901 551 
C 1747 416 1562 339 1363 339 
C 1082 339 1069 699 1069 860 
L 1069 2380 
z
" transform="scale(0.015625)"/>
      <path id="CMSS17-79" d="M 2675 2752 
L 2176 2752 
C 1632 1293 1446 701 1434 383 
L 1427 383 
C 1408 695 1126 1459 902 2006 
L 602 2752 
L 83 2752 
L 1216 14 
C 1146 -177 1043 -464 1011 -527 
C 870 -884 774 -884 672 -884 
C 646 -884 442 -877 211 -807 
L 250 -1229 
C 410 -1261 570 -1280 685 -1280 
C 845 -1280 1165 -1280 1459 -495 
L 2675 2752 
z
" transform="scale(0.015625)"/>
     </defs>
     <use xlink:href="#CMSS17-49" transform="scale(0.996264)"/>
     <use xlink:href="#CMSS17-6e" transform="translate(25.783926 0) scale(0.996264)"/>
     <use xlink:href="#CMSS17-64" transform="translate(73.988869 0) scale(0.996264)"/>
     <use xlink:href="#CMSS17-75" transform="translate(122.193812 0) scale(0.996264)"/>
     <use xlink:href="#CMSS17-73" transform="translate(170.398755 0) scale(0.996264)"/>
     <use xlink:href="#CMSS17-74" transform="translate(206.312297 0) scale(0.996264)"/>
     <use xlink:href="#CMSS17-72" transform="translate(240.143864 0) scale(0.996264)"/>
     <use xlink:href="#CMSS17-79" transform="translate(272.053636 0) scale(0.996264)"/>
    </g>
   </g>
   <g id="text_8">
    <!-- $\mathrm{baseline}$ -->
    <g style="fill: #1e293b" transform="translate(431.016126 244.636595) scale(0.15 -0.15)">
     <defs>
      <path id="CMR17-62" d="M 960 4416 
L 198 4345 
L 198 4179 
C 576 4179 634 4141 634 3843 
L 634 -13 
L 749 -13 
L 934 445 
C 1120 141 1395 -64 1766 -64 
C 2406 -64 3053 503 3053 1382 
C 3053 2209 2477 2816 1830 2816 
C 1434 2816 1152 2603 960 2351 
L 960 4416 
z
M 973 2022 
C 973 2138 973 2157 1062 2293 
C 1312 2681 1670 2713 1792 2713 
C 1984 2713 2643 2610 2643 1388 
C 2643 109 1888 38 1734 38 
C 1536 38 1248 115 1043 490 
C 973 613 973 626 973 742 
L 973 2022 
z
" transform="scale(0.015625)"/>
      <path id="CMR17-61" d="M 2304 1656 
C 2304 2048 2304 2275 2035 2534 
C 1798 2751 1523 2816 1306 2816 
C 800 2816 435 2408 435 1977 
C 435 1740 627 1728 666 1728 
C 749 1728 896 1779 896 1958 
C 896 2118 774 2188 666 2188 
C 640 2188 608 2182 589 2176 
C 723 2594 1069 2713 1293 2713 
C 1613 2713 1965 2421 1965 1875 
L 1965 1632 
C 1587 1619 1133 1568 774 1373 
C 371 1147 256 822 256 576 
C 256 77 832 -64 1171 -64 
C 1523 -64 1850 135 1990 505 
C 2003 219 2182 -39 2464 -39 
C 2598 -39 2938 51 2938 563 
L 2938 926 
L 2822 926 
L 2822 557 
C 2822 161 2650 109 2566 109 
C 2304 109 2304 446 2304 732 
L 2304 1656 
z
M 1965 887 
C 1965 323 1568 38 1216 38 
C 896 38 646 278 646 576 
C 646 771 730 1114 1101 1322 
C 1408 1497 1760 1523 1965 1536 
L 1965 887 
z
" transform="scale(0.015625)"/>
      <path id="CMR17-65" d="M 2438 1503 
C 2464 1529 2464 1542 2464 1606 
C 2464 2251 2118 2816 1389 2816 
C 710 2816 173 2175 173 1394 
C 173 554 781 -64 1459 -64 
C 2176 -64 2458 619 2458 755 
C 2458 800 2419 800 2406 800 
C 2362 800 2355 787 2330 709 
C 2189 270 1837 51 1504 51 
C 1229 51 954 206 781 490 
C 582 819 582 1200 582 1503 
L 2438 1503 
z
M 589 1600 
C 634 2511 1126 2713 1382 2713 
C 1818 2713 2112 2308 2118 1600 
L 589 1600 
z
" transform="scale(0.015625)"/>
      <path id="CMR17-6c" d="M 979 4416 
L 218 4345 
L 218 4179 
C 595 4179 653 4141 653 3835 
L 653 439 
C 653 198 627 166 218 166 
L 218 0 
C 371 12 653 12 813 12 
C 979 12 1261 12 1414 0 
L 1414 166 
C 1005 166 979 191 979 439 
L 979 4416 
z
" transform="scale(0.015625)"/>
     </defs>
     <use xlink:href="#CMR17-62" transform="scale(0.996264)"/>
     <use xlink:href="#CMR17-61" transform="translate(50.89537 0) scale(0.996264)"/>
     <use xlink:href="#CMR17-73" transform="translate(96.585847 0) scale(0.996264)"/>
     <use xlink:href="#CMR17-65" transform="translate(132.387185 0) scale(0.996264)"/>
     <use xlink:href="#CMR17-6c" transform="translate(172.872845 0) scale(0.996264)"/>
     <use xlink:href="#CMR17-69" transform="translate(197.743903 0) scale(0.996264)"/>
     <use xlink:href="#CMR17-6e" transform="translate(222.614962 0) scale(0.996264)"/>
     <use xlink:href="#CMR17-65" transform="translate(273.510332 0) scale(0.996264)"/>
    </g>
   </g>
   <g id="text_9">
    <!-- Portfolio -->
    <g style="fill: #0f172a" transform="translate(608.150452 198.694595) scale(0.12 -0.12)">
     <defs>
      <path id="CMSS17-66" d="M 1075 2380 
L 1722 2380 
L 1722 2752 
L 1062 2752 
L 1062 3563 
C 1062 4013 1408 4089 1606 4089 
C 1670 4089 1850 4089 2080 4007 
L 2080 4428 
C 1933 4460 1754 4480 1613 4480 
C 1018 4480 602 3994 602 3366 
L 602 2752 
L 160 2752 
L 160 2380 
L 602 2380 
L 602 0 
L 1075 0 
L 1075 2380 
z
" transform="scale(0.015625)"/>
      <path id="CMSS17-69" d="M 979 4224 
L 442 4224 
L 442 3686 
L 979 3686 
L 979 4224 
z
M 947 2752 
L 474 2752 
L 474 0 
L 947 0 
L 947 2752 
z
" transform="scale(0.015625)"/>
     </defs>
     <use xlink:href="#CMSS17-50" transform="scale(0.996264)"/>
     <use xlink:href="#CMSS17-6f" transform="translate(57.133132 0) scale(0.996264)"/>
     <use xlink:href="#CMSS17-72" transform="translate(101.374302 0) scale(0.996264)"/>
     <use xlink:href="#CMSS17-74" transform="translate(133.284074 0) scale(0.996264)"/>
     <use xlink:href="#CMSS17-66" transform="translate(167.115641 0) scale(0.996264)"/>
     <use xlink:href="#CMSS17-6f" transform="translate(195.7423 0) scale(0.996264)"/>
     <use xlink:href="#CMSS17-6c" transform="translate(242.585924 0) scale(0.996264)"/>
     <use xlink:href="#CMSS17-69" transform="translate(264.766647 0) scale(0.996264)"/>
     <use xlink:href="#CMSS17-6f" transform="translate(286.94737 0) scale(0.996264)"/>
    </g>
   </g>
   <g id="text_10">
    <!-- $3\ \mathrm{models}$ -->
    <g style="fill: #1e293b" transform="translate(600.681983 244.636595) scale(0.15 -0.15)">
     <defs>
      <path id="CMR17-33" d="M 1414 2176 
C 1984 2176 2234 1673 2234 1094 
C 2234 322 1824 25 1453 25 
C 1114 25 563 193 390 691 
C 422 678 454 678 486 678 
C 640 678 755 780 755 947 
C 755 1132 614 1216 486 1216 
C 378 1216 211 1164 211 927 
C 211 335 787 -128 1466 -128 
C 2176 -128 2720 432 2720 1087 
C 2720 1718 2208 2176 1600 2246 
C 2086 2347 2554 2776 2554 3353 
C 2554 3856 2048 4224 1472 4224 
C 890 4224 378 3862 378 3347 
C 378 3123 544 3084 627 3084 
C 762 3084 877 3167 877 3334 
C 877 3500 762 3584 627 3584 
C 602 3584 570 3584 544 3571 
C 730 3999 1235 4076 1459 4076 
C 1683 4076 2106 3966 2106 3347 
C 2106 3167 2080 2851 1862 2574 
C 1670 2329 1453 2316 1242 2297 
C 1210 2297 1062 2284 1037 2284 
C 992 2278 966 2272 966 2227 
C 966 2182 973 2176 1101 2176 
L 1414 2176 
z
" transform="scale(0.015625)"/>
      <path id="CMR17-6d" d="M 4326 1954 
C 4326 2276 4269 2816 3507 2816 
C 3072 2816 2771 2520 2656 2173 
L 2650 2173 
C 2573 2700 2195 2816 1837 2816 
C 1331 2816 1069 2424 973 2166 
L 966 2166 
L 966 2816 
L 211 2745 
L 211 2578 
C 589 2578 646 2540 646 2231 
L 646 443 
C 646 198 621 166 211 166 
L 211 0 
C 365 12 646 12 813 12 
C 979 12 1267 12 1421 0 
L 1421 166 
C 1011 166 986 192 986 443 
L 986 1678 
C 986 2269 1344 2713 1792 2713 
C 2266 2713 2317 2289 2317 1980 
L 2317 443 
C 2317 198 2291 166 1882 166 
L 1882 0 
C 2035 12 2317 12 2483 12 
C 2650 12 2938 12 3091 0 
L 3091 166 
C 2682 166 2656 192 2656 443 
L 2656 1678 
C 2656 2269 3014 2713 3462 2713 
C 3936 2713 3987 2289 3987 1980 
L 3987 443 
C 3987 198 3962 166 3552 166 
L 3552 0 
C 3706 12 3987 12 4154 12 
C 4320 12 4608 12 4762 0 
L 4762 166 
C 4352 166 4326 192 4326 443 
L 4326 1954 
z
" transform="scale(0.015625)"/>
      <path id="CMR17-6f" d="M 2758 1356 
C 2758 2176 2163 2816 1466 2816 
C 768 2816 173 2176 173 1356 
C 173 550 768 -64 1466 -64 
C 2163 -64 2758 550 2758 1356 
z
M 1466 51 
C 1165 51 909 230 762 480 
C 602 768 582 1126 582 1408 
C 582 1676 595 2009 762 2297 
C 890 2508 1139 2713 1466 2713 
C 1754 2713 1997 2553 2150 2329 
C 2349 2028 2349 1606 2349 1408 
C 2349 1158 2336 774 2163 467 
C 1984 172 1709 51 1466 51 
z
" transform="scale(0.015625)"/>
      <path id="CMR17-64" d="M 1869 4345 
L 1869 4179 
C 2246 4179 2304 4141 2304 3843 
L 2304 2371 
C 2278 2403 2016 2816 1498 2816 
C 845 2816 211 2228 211 1376 
C 211 529 806 -64 1434 -64 
C 1978 -64 2259 361 2291 406 
L 2291 -64 
L 3066 -13 
L 3066 154 
C 2688 154 2630 193 2630 503 
L 2630 4416 
L 1869 4345 
z
M 2291 762 
C 2291 568 2176 393 2029 264 
C 1811 70 1594 38 1472 38 
C 1286 38 621 135 621 1369 
C 621 2636 1363 2713 1530 2713 
C 1824 2713 2061 2545 2208 2313 
C 2291 2177 2291 2157 2291 2041 
L 2291 762 
z
" transform="scale(0.015625)"/>
     </defs>
     <use xlink:href="#CMR17-33" transform="scale(0.996264)"/>
     <use xlink:href="#CMR17-6d" transform="translate(76.91959 0) scale(0.996264)"/>
     <use xlink:href="#CMR17-6f" transform="translate(153.83918 0) scale(0.996264)"/>
     <use xlink:href="#CMR17-64" transform="translate(202.132096 0) scale(0.996264)"/>
     <use xlink:href="#CMR17-65" transform="translate(253.027465 0) scale(0.996264)"/>
     <use xlink:href="#CMR17-6c" transform="translate(293.513126 0) scale(0.996264)"/>
     <use xlink:href="#CMR17-73" transform="translate(318.384184 0) scale(0.996264)"/>
    </g>
   </g>
   <g id="text_11">
    <!-- Linear classifier baseline -&gt; MLP -&gt; deep learning -&gt; feature engineering -&gt; portfolio -->
    <g style="fill: #475569" transform="translate(178.986371 378.087166) scale(0.11 -0.11)">
     <defs>
      <path id="CMSS17-61" d="M 2406 1789 
C 2406 2399 1978 2816 1402 2816 
C 1120 2816 813 2764 461 2559 
L 499 2133 
C 659 2250 934 2438 1395 2438 
C 1722 2438 1920 2185 1920 1782 
L 1920 1536 
C 896 1504 256 1209 256 711 
C 256 452 416 -64 947 -64 
C 1043 -64 1562 -52 1933 224 
L 1933 -13 
L 2406 -13 
L 2406 1789 
z
M 1920 824 
C 1920 711 1920 559 1728 446 
C 1562 339 1350 326 1261 326 
C 941 326 723 503 723 723 
C 723 1165 1722 1209 1920 1216 
L 1920 824 
z
" transform="scale(0.015625)"/>
      <path id="CMSS17-63" d="M 2464 2540 
C 2464 2585 2170 2713 2093 2739 
C 1882 2816 1613 2816 1542 2816 
C 710 2816 211 2092 211 1363 
C 211 595 768 -64 1517 -64 
C 1946 -64 2253 76 2502 243 
L 2464 665 
C 2189 454 1869 339 1523 339 
C 1024 339 698 774 698 1369 
C 698 1830 909 2412 1549 2412 
C 1901 2412 2099 2342 2394 2143 
L 2464 2540 
z
" transform="scale(0.015625)"/>
      <path id="CMSS17-c" d="M 2752 4480 
L 2240 4480 
L 2240 3967 
L 2752 3967 
L 2752 4480 
z
M 2733 2752 
L 2259 2752 
L 2259 0 
L 2733 0 
L 2733 2752 
z
M 1075 2380 
L 1773 2380 
L 1773 2752 
L 1062 2752 
L 1062 3613 
C 1062 3961 1216 4134 1421 4134 
C 1542 4134 1664 4102 1773 4044 
L 1773 4473 
C 1722 4486 1574 4524 1421 4524 
C 941 4524 602 4038 602 3402 
L 602 2752 
L 160 2752 
L 160 2380 
L 602 2380 
L 602 0 
L 1075 0 
L 1075 2380 
z
" transform="scale(0.015625)"/>
      <path id="CMSS17-62" d="M 954 4416 
L 480 4416 
L 480 -13 
L 966 -13 
L 966 275 
C 1210 38 1504 -64 1766 -64 
C 2381 -64 2880 559 2880 1382 
C 2880 2133 2496 2816 1926 2816 
C 1523 2816 1165 2649 954 2476 
L 954 4416 
z
M 966 2095 
C 1107 2276 1306 2425 1587 2425 
C 1965 2425 2394 2146 2394 1382 
C 2394 566 1882 326 1530 326 
C 1402 326 1267 358 1139 468 
C 966 624 966 721 966 812 
L 966 2095 
z
" transform="scale(0.015625)"/>
      <path id="CMSS17-2d" d="M 1664 1216 
L 1664 1587 
L 64 1587 
L 64 1216 
L 1664 1216 
z
" transform="scale(0.015625)"/>
      <path id="CMSS17-3e" d="M 1587 3200 
L 1075 3200 
L 1075 2688 
L 1587 2688 
L 1587 3200 
z
M 2362 -548 
C 1997 -814 1626 -890 1344 -890 
C 922 -890 819 -655 819 -306 
C 819 -8 896 87 992 207 
C 1536 899 1536 1616 1536 1774 
L 1536 2112 
L 1126 2112 
L 1126 1787 
C 1126 1203 890 753 634 480 
C 512 353 333 169 333 -287 
C 333 -833 621 -1280 1344 -1280 
C 1920 -1280 2368 -1024 2502 -941 
L 2362 -548 
z
" transform="scale(0.015625)"/>
      <path id="CMSS17-67" d="M 2848 2816 
C 2483 2809 2170 2739 1914 2617 
C 1702 2783 1485 2816 1338 2816 
C 781 2816 358 2356 358 1824 
C 358 1481 550 1222 563 1209 
C 448 1049 384 876 384 684 
C 384 460 474 300 544 211 
C 211 6 166 -308 166 -429 
C 166 -896 749 -1280 1498 -1280 
C 2253 -1280 2835 -896 2835 -423 
C 2835 460 1856 467 1587 467 
L 1069 467 
C 973 467 717 467 717 793 
C 717 921 774 1004 781 1011 
C 877 940 1075 832 1338 832 
C 1869 832 2310 1279 2310 1824 
C 2310 2128 2170 2349 2112 2425 
L 2131 2425 
C 2150 2425 2419 2444 2515 2444 
C 2720 2444 2739 2438 2918 2419 
L 2848 2816 
z
M 1338 1184 
C 1120 1184 813 1317 813 1824 
C 813 2375 1165 2463 1331 2463 
C 1549 2463 1856 2330 1856 1824 
C 1856 1272 1504 1184 1338 1184 
z
M 1581 0 
C 1734 0 2381 0 2381 -436 
C 2381 -711 1984 -928 1504 -928 
C 1018 -928 621 -717 621 -429 
C 621 -397 621 0 1062 0 
L 1581 0 
z
" transform="scale(0.015625)"/>
     </defs>
     <use xlink:href="#CMSS17-4c" transform="scale(0.996264)"/>
     <use xlink:href="#CMSS17-69" transform="translate(50.687105 0) scale(0.996264)"/>
     <use xlink:href="#CMSS17-6e" transform="translate(72.867828 0) scale(0.996264)"/>
     <use xlink:href="#CMSS17-65" transform="translate(121.072772 0) scale(0.996264)"/>
     <use xlink:href="#CMSS17-61" transform="translate(162.711594 0) scale(0.996264)"/>
     <use xlink:href="#CMSS17-72" transform="translate(205.03106 0) scale(0.996264)"/>
     <use xlink:href="#CMSS17-63" transform="translate(268.169946 0) scale(0.996264)"/>
     <use xlink:href="#CMSS17-6c" transform="translate(309.808768 0) scale(0.996264)"/>
     <use xlink:href="#CMSS17-61" transform="translate(331.989491 0) scale(0.996264)"/>
     <use xlink:href="#CMSS17-73" transform="translate(376.911411 0) scale(0.996264)"/>
     <use xlink:href="#CMSS17-73" transform="translate(412.824953 0) scale(0.996264)"/>
     <use xlink:href="#CMSS17-69" transform="translate(448.738495 0) scale(0.996264)"/>
     <use xlink:href="#CMSS17-c" transform="translate(470.919218 0) scale(0.996264)"/>
     <use xlink:href="#CMSS17-65" transform="translate(521.045956 0) scale(0.996264)"/>
     <use xlink:href="#CMSS17-72" transform="translate(562.684778 0) scale(0.996264)"/>
     <use xlink:href="#CMSS17-62" transform="translate(625.823663 0) scale(0.996264)"/>
     <use xlink:href="#CMSS17-61" transform="translate(674.028606 0) scale(0.996264)"/>
     <use xlink:href="#CMSS17-73" transform="translate(718.950527 0) scale(0.996264)"/>
     <use xlink:href="#CMSS17-65" transform="translate(754.864069 0) scale(0.996264)"/>
     <use xlink:href="#CMSS17-6c" transform="translate(796.502891 0) scale(0.996264)"/>
     <use xlink:href="#CMSS17-69" transform="translate(818.683614 0) scale(0.996264)"/>
     <use xlink:href="#CMSS17-6e" transform="translate(840.864337 0) scale(0.996264)"/>
     <use xlink:href="#CMSS17-65" transform="translate(889.06928 0) scale(0.996264)"/>
     <use xlink:href="#CMSS17-2d" transform="translate(961.937215 0) scale(0.996264)"/>
     <use xlink:href="#CMSS17-3e" transform="translate(993.166328 0) scale(0.996264)"/>
     <use xlink:href="#CMSS17-4d" transform="translate(1068.636701 0) scale(0.996264)"/>
     <use xlink:href="#CMSS17-4c" transform="translate(1150.312731 0) scale(0.996264)"/>
     <use xlink:href="#CMSS17-50" transform="translate(1200.999836 0) scale(0.996264)"/>
     <use xlink:href="#CMSS17-2d" transform="translate(1291.964535 0) scale(0.996264)"/>
     <use xlink:href="#CMSS17-3e" transform="translate(1323.193648 0) scale(0.996264)"/>
     <use xlink:href="#CMSS17-64" transform="translate(1398.664022 0) scale(0.996264)"/>
     <use xlink:href="#CMSS17-65" transform="translate(1446.868965 0) scale(0.996264)"/>
     <use xlink:href="#CMSS17-65" transform="translate(1488.507787 0) scale(0.996264)"/>
     <use xlink:href="#CMSS17-70" transform="translate(1530.146609 0) scale(0.996264)"/>
     <use xlink:href="#CMSS17-6c" transform="translate(1609.580665 0) scale(0.996264)"/>
     <use xlink:href="#CMSS17-65" transform="translate(1631.761388 0) scale(0.996264)"/>
     <use xlink:href="#CMSS17-61" transform="translate(1673.40021 0) scale(0.996264)"/>
     <use xlink:href="#CMSS17-72" transform="translate(1715.719677 0) scale(0.996264)"/>
     <use xlink:href="#CMSS17-6e" transform="translate(1747.629449 0) scale(0.996264)"/>
     <use xlink:href="#CMSS17-69" transform="translate(1795.834392 0) scale(0.996264)"/>
     <use xlink:href="#CMSS17-6e" transform="translate(1818.015115 0) scale(0.996264)"/>
     <use xlink:href="#CMSS17-67" transform="translate(1866.220059 0) scale(0.996264)"/>
     <use xlink:href="#CMSS17-2d" transform="translate(1944.292795 0) scale(0.996264)"/>
     <use xlink:href="#CMSS17-3e" transform="translate(1975.521908 0) scale(0.996264)"/>
     <use xlink:href="#CMSS17-66" transform="translate(2050.992281 0) scale(0.996264)"/>
     <use xlink:href="#CMSS17-65" transform="translate(2079.61894 0) scale(0.996264)"/>
     <use xlink:href="#CMSS17-61" transform="translate(2121.257762 0) scale(0.996264)"/>
     <use xlink:href="#CMSS17-74" transform="translate(2166.179683 0) scale(0.996264)"/>
     <use xlink:href="#CMSS17-75" transform="translate(2200.011249 0) scale(0.996264)"/>
     <use xlink:href="#CMSS17-72" transform="translate(2248.216192 0) scale(0.996264)"/>
     <use xlink:href="#CMSS17-65" transform="translate(2280.125965 0) scale(0.996264)"/>
     <use xlink:href="#CMSS17-65" transform="translate(2352.9939 0) scale(0.996264)"/>
     <use xlink:href="#CMSS17-6e" transform="translate(2394.632722 0) scale(0.996264)"/>
     <use xlink:href="#CMSS17-67" transform="translate(2442.837665 0) scale(0.996264)"/>
     <use xlink:href="#CMSS17-69" transform="translate(2489.681289 0) scale(0.996264)"/>
     <use xlink:href="#CMSS17-6e" transform="translate(2511.862012 0) scale(0.996264)"/>
     <use xlink:href="#CMSS17-65" transform="translate(2560.066955 0) scale(0.996264)"/>
     <use xlink:href="#CMSS17-65" transform="translate(2601.705777 0) scale(0.996264)"/>
     <use xlink:href="#CMSS17-72" transform="translate(2643.344599 0) scale(0.996264)"/>
     <use xlink:href="#CMSS17-69" transform="translate(2675.254371 0) scale(0.996264)"/>
     <use xlink:href="#CMSS17-6e" transform="translate(2697.435094 0) scale(0.996264)"/>
     <use xlink:href="#CMSS17-67" transform="translate(2745.640038 0) scale(0.996264)"/>
     <use xlink:href="#CMSS17-2d" transform="translate(2823.712774 0) scale(0.996264)"/>
     <use xlink:href="#CMSS17-3e" transform="translate(2854.941887 0) scale(0.996264)"/>
     <use xlink:href="#CMSS17-70" transform="translate(2930.41226 0) scale(0.996264)"/>
     <use xlink:href="#CMSS17-6f" transform="translate(2981.219642 0) scale(0.996264)"/>
     <use xlink:href="#CMSS17-72" transform="translate(3025.460812 0) scale(0.996264)"/>
     <use xlink:href="#CMSS17-74" transform="translate(3057.370584 0) scale(0.996264)"/>
     <use xlink:href="#CMSS17-66" transform="translate(3091.202151 0) scale(0.996264)"/>
     <use xlink:href="#CMSS17-6f" transform="translate(3119.82881 0) scale(0.996264)"/>
     <use xlink:href="#CMSS17-6c" transform="translate(3166.672433 0) scale(0.996264)"/>
     <use xlink:href="#CMSS17-69" transform="translate(3188.853156 0) scale(0.996264)"/>
     <use xlink:href="#CMSS17-6f" transform="translate(3211.033879 0) scale(0.996264)"/>
    </g>
   </g>
   <g id="text_12">
    <!-- Chapter 3 Career Roadmap -->
    <g style="fill: #0f172a" transform="translate(279.280381 18.961452) scale(0.17 -0.17)">
     <defs>
      <path id="CMSS17-52" d="M 2522 2099 
L 2534 2105 
C 3533 2450 3539 3125 3539 3244 
C 3539 3838 2925 4416 2003 4416 
L 570 4416 
L 570 0 
L 1094 0 
L 1094 2041 
L 2035 2041 
L 3168 0 
L 3706 0 
L 2522 2099 
z
M 1094 2432 
L 1094 4057 
L 1933 4057 
C 2746 4057 3034 3607 3034 3244 
C 3034 2907 2778 2432 1933 2432 
L 1094 2432 
z
" transform="scale(0.015625)"/>
      <path id="CMSS17-6d" d="M 4288 1878 
C 4288 2309 4179 2816 3462 2816 
C 2982 2816 2694 2515 2566 2328 
C 2451 2668 2182 2816 1798 2816 
C 1363 2816 1088 2566 941 2386 
L 941 2783 
L 474 2783 
L 474 0 
L 960 0 
L 960 1556 
C 960 1936 1101 2425 1555 2425 
C 2138 2425 2138 2013 2138 1826 
L 2138 0 
L 2624 0 
L 2624 1556 
C 2624 1936 2765 2425 3219 2425 
C 3802 2425 3802 2013 3802 1826 
L 3802 0 
L 4288 0 
L 4288 1878 
z
" transform="scale(0.015625)"/>
     </defs>
     <use xlink:href="#CMSS17-43" transform="scale(0.996264)"/>
     <use xlink:href="#CMSS17-68" transform="translate(59.855772 0) scale(0.996264)"/>
     <use xlink:href="#CMSS17-61" transform="translate(108.060715 0) scale(0.996264)"/>
     <use xlink:href="#CMSS17-70" transform="translate(152.982635 0) scale(0.996264)"/>
     <use xlink:href="#CMSS17-74" transform="translate(201.187578 0) scale(0.996264)"/>
     <use xlink:href="#CMSS17-65" transform="translate(235.019145 0) scale(0.996264)"/>
     <use xlink:href="#CMSS17-72" transform="translate(276.657967 0) scale(0.996264)"/>
     <use xlink:href="#CMSS17-33" transform="translate(339.796853 0) scale(0.996264)"/>
     <use xlink:href="#CMSS17-43" transform="translate(417.869589 0) scale(0.996264)"/>
     <use xlink:href="#CMSS17-61" transform="translate(477.72536 0) scale(0.996264)"/>
     <use xlink:href="#CMSS17-72" transform="translate(520.044827 0) scale(0.996264)"/>
     <use xlink:href="#CMSS17-65" transform="translate(551.9546 0) scale(0.996264)"/>
     <use xlink:href="#CMSS17-65" transform="translate(593.593422 0) scale(0.996264)"/>
     <use xlink:href="#CMSS17-72" transform="translate(635.232244 0) scale(0.996264)"/>
     <use xlink:href="#CMSS17-52" transform="translate(698.371129 0) scale(0.996264)"/>
     <use xlink:href="#CMSS17-6f" transform="translate(758.787284 0) scale(0.996264)"/>
     <use xlink:href="#CMSS17-61" transform="translate(805.630907 0) scale(0.996264)"/>
     <use xlink:href="#CMSS17-64" transform="translate(850.552828 0) scale(0.996264)"/>
     <use xlink:href="#CMSS17-6d" transform="translate(898.757771 0) scale(0.996264)"/>
     <use xlink:href="#CMSS17-61" transform="translate(972.987026 0) scale(0.996264)"/>
     <use xlink:href="#CMSS17-70" transform="translate(1017.908946 0) scale(0.996264)"/>
    </g>
   </g>
  </g>
 </g>
 <defs>
  <clipPath id="p5c007a3886">
   <rect x="7.2" y="34.961452" width="725.4" height="379.971429"/>
  </clipPath>
 </defs>
</svg>
